<?xml version="1.0" standalone="no"?>
<!DOCTYPE svg PUBLIC "-//W3C//DTD SVG 20010904//EN"
 "http://www.w3.org/TR/2001/REC-SVG-20010904/DTD/svg10.dtd">
<svg version="1.0" xmlns="http://www.w3.org/2000/svg"
 width="1048.000000pt" height="767.000000pt" viewBox="0 0 1048.000000 767.000000"
 preserveAspectRatio="xMidYMid meet">
<metadata>
Created by potrace 1.16, written by Peter Selinger 2001-2019
</metadata>
<g transform="translate(0.000000,767.000000) scale(0.100000,-0.100000)"
fill="#000000" stroke="none">
<path d="M4129 6036 c-102 -27 -175 -90 -227 -196 -23 -47 -27 -67 -27 -145 0
-77 4 -98 27 -147 34 -72 114 -153 187 -187 l56 -26 945 0 945 0 63 29 c74 34
138 100 179 184 24 48 28 70 28 137 0 68 -4 89 -29 139 -41 81 -115 159 -184
193 l-57 28 -930 2 c-716 1 -941 -1 -976 -11z"/>
<path d="M4193 5170 c-142 -13 -234 -75 -292 -199 -35 -75 -37 -201 -4 -273
27 -59 92 -130 149 -162 106 -59 56 -57 1065 -54 l924 3 56 26 c82 39 131 88
175 177 33 67 38 86 38 147 0 59 -4 79 -31 131 -40 76 -122 153 -199 185 l-59
24 -870 1 c-478 1 -907 -2 -952 -6z"/>
<path d="M4169 4297 c-97 -27 -191 -105 -241 -199 -20 -37 -23 -58 -23 -143 0
-89 3 -106 28 -157 36 -74 101 -139 175 -175 49 -24 69 -28 142 -28 109 1 186
33 258 109 68 72 87 127 87 252 0 92 -3 105 -30 159 -70 137 -254 222 -396
182z"/>
<path d="M2494 2415 c-2 -5 -5 -179 -7 -385 l-2 -375 87 -3 87 -3 3 148 3 148
185 5 185 5 0 85 0 85 -185 5 -185 5 0 50 1 50 214 6 c118 3 216 6 218 7 1 1
2 40 2 86 0 83 0 84 -27 89 -49 10 -575 3 -579 -8z"/>
<path d="M3413 2420 c-123 -25 -262 -137 -303 -246 -32 -86 -26 -226 13 -306
60 -123 216 -218 359 -218 57 0 143 17 183 37 38 19 105 83 105 101 0 13 -88
101 -103 102 -4 0 -30 -12 -59 -27 -125 -65 -265 -29 -322 84 -18 37 -21 128
-5 170 39 104 187 154 302 103 26 -11 49 -25 52 -30 3 -6 12 -10 20 -10 21 0
115 90 115 110 0 37 -129 113 -219 130 -61 11 -78 11 -138 0z"/>
<path d="M3868 2418 c-3 -7 -6 -183 -7 -390 l-3 -378 91 0 90 0 3 148 3 147
150 0 150 0 3 -147 3 -148 83 0 83 0 7 38 c3 20 6 193 6 383 l0 347 -22 6
c-13 3 -53 6 -90 6 l-68 0 0 -150 0 -151 -152 3 -153 3 -3 148 -3 147 -83 0
c-58 0 -85 -4 -88 -12z"/>
<path d="M4898 2423 c-17 -4 -78 -134 -153 -329 -24 -61 -70 -171 -103 -245
-33 -74 -63 -149 -67 -167 l-7 -33 83 3 83 3 30 75 c17 41 35 81 39 88 6 9 50
12 161 12 l153 0 17 -47 c9 -27 26 -67 36 -90 l20 -43 80 0 c61 0 80 3 80 14
0 22 -74 213 -150 386 -39 88 -87 202 -106 253 -42 111 -58 127 -128 126 -28
-1 -59 -3 -68 -6z m106 -314 c20 -44 36 -85 36 -90 0 -5 -34 -9 -75 -9 -41 0
-75 3 -75 7 0 24 57 173 66 173 6 0 28 -36 48 -81z"/>
<path d="M5405 2419 c-3 -8 -4 -183 -3 -389 l3 -375 88 -3 87 -3 0 121 c0 77
4 120 11 120 5 0 66 -54 134 -120 l123 -120 111 0 c61 0 111 3 111 7 0 3 -50
57 -112 119 l-111 113 45 20 c106 45 159 127 160 245 1 121 -45 192 -161 248
-42 21 -63 23 -263 26 -177 3 -219 2 -223 -9z m446 -208 c12 -15 19 -39 19
-68 0 -82 -53 -108 -210 -101 l-75 3 -3 89 c-2 49 -1 94 1 100 3 8 44 9 127 6
113 -5 123 -7 141 -29z"/>
<path d="M6149 2355 c-1 -41 -2 -81 -3 -87 -1 -7 14 -17 32 -23 l32 -9 0 -198
0 -197 -30 -16 c-30 -15 -30 -17 -30 -96 l0 -80 148 3 147 3 3 78 3 78 -31 10
-30 11 -1 189 c-1 104 -2 194 -3 201 -1 6 14 16 32 20 l33 9 -3 87 -3 87 -147
3 -148 3 -1 -76z"/>
<path d="M6537 2423 c-4 -3 -7 -44 -7 -90 0 -72 2 -83 18 -84 9 0 65 0 125 1
l107 1 0 -301 0 -301 88 3 87 3 3 293 2 292 113 0 c61 0 117 4 124 8 7 4 13
37 15 76 l3 68 54 -84 c73 -111 211 -307 222 -314 5 -3 9 -82 9 -175 l0 -170
88 3 87 3 3 159 3 159 58 81 c121 169 244 357 238 363 -12 11 -151 15 -177 5
-16 -6 -55 -55 -110 -140 -47 -72 -90 -131 -96 -131 -6 -1 -52 59 -102 133
-85 125 -94 134 -129 140 -51 8 -818 8 -826 -1z"/>
</g>
</svg>
